HIERARCHY
ROOT hip
{
  OFFSET 0 0 0
  CHANNELS 6 Xposition Yposition Zposition Zrotation Yrotation Xrotation
  JOINT abdomen
  {
    OFFSET 0 20.6881 -0.73152
    CHANNELS 3 Zrotation Xrotation Yrotation
    JOINT chest
    {
      OFFSET 0 11.7043 -0.48768
      CHANNELS 3 Zrotation Xrotation Yrotation
      JOINT neck
      {
        OFFSET 0 22.1894 -2.19456
        CHANNELS 3 Zrotation Xrotation Yrotation
        JOINT head
        {
          OFFSET -0.24384 7.07133 1.2192
          CHANNELS 3 Zrotation Xrotation Yrotation
          JOINT leftEye
          {
            OFFSET 4.14528 8.04674 8.04672
            CHANNELS 3 Zrotation Xrotation Yrotation
            End Site
            {
              OFFSET 1 0 0
            }
          }
          JOINT rightEye
          {
            OFFSET -3.6576 8.04674 8.04672
            CHANNELS 3 Zrotation Xrotation Yrotation
            End Site
            {
              OFFSET 1 0 0
            }
          }
        }
      }
      JOINT rCollar
      {
        OFFSET -2.68224 19.2634 -4.8768
        CHANNELS 3 Zrotation Xrotation Yrotation
        JOINT rShldr
        {
          OFFSET -8.77824 -1.95073 1.46304
          CHANNELS 3 Zrotation Xrotation Yrotation
          JOINT rForeArm
          {
            OFFSET -28.1742 -1.7115 0.48768
            CHANNELS 3 Zrotation Xrotation Yrotation
            JOINT rHand
            {
              OFFSET -22.5879 0.773209 7.07136
              CHANNELS 3 Zrotation Xrotation Yrotation
              JOINT rThumb1
              {
                OFFSET -1.2192 -0.487915 3.41376
                CHANNELS 3 Zrotation Xrotation Yrotation
                JOINT rThumb2
                {
                  OFFSET -3.37035 -0.52449 3.41376
                  CHANNELS 3 Zrotation Xrotation Yrotation
                  End Site
                  {
                    OFFSET -1.78271 -1.18214 1.43049
                  }
                }
              }
              JOINT rIndex1
              {
                OFFSET -7.75947 0.938293 5.60832
                CHANNELS 3 Zrotation Xrotation Yrotation
                JOINT rIndex2
                {
                  OFFSET -2.54057 -0.884171 1.56538
                  CHANNELS 3 Zrotation Xrotation Yrotation
                  End Site
                  {
                    OFFSET -1.62519 -0.234802 1.16502
                  }
                }
              }
              JOINT rMid1
              {
                OFFSET -8.24714 1.18213 3.41376
                CHANNELS 3 Zrotation Xrotation Yrotation
                JOINT rMid2
                {
                  OFFSET -3.10165 -0.590103 1.0647
                  CHANNELS 3 Zrotation Xrotation Yrotation
                  End Site
                  {
                    OFFSET -2.48547 -0.328903 0.83742
                  }
                }
              }
              JOINT rRing1
              {
                OFFSET -8.82822 0.546677 1.51678
                CHANNELS 3 Zrotation Xrotation Yrotation
                JOINT rRing2
                {
                  OFFSET -2.60934 -0.819778 -0.0198488
                  CHANNELS 3 Zrotation Xrotation Yrotation
                  End Site
                  {
                    OFFSET -2.33842 -0.294052 0.168128
                  }
                }
              }
              JOINT rPinky1
              {
                OFFSET -8.27202 -0.0477905 -0.4584
                CHANNELS 3 Zrotation Xrotation Yrotation
                JOINT rPinky2
                {
                  OFFSET -1.82734 -0.647385 -0.700984
                  CHANNELS 3 Zrotation Xrotation Yrotation
                  End Site
                  {
                    OFFSET -1.69225 -0.51767 -0.607171
                  }
                }
              }
            }
          }
        }
      }
      JOINT lCollar
      {
        OFFSET 2.68224 19.2634 -4.8768
        CHANNELS 3 Zrotation Xrotation Yrotation
        JOINT lShldr
        {
          OFFSET 8.77824 -1.95073 1.46304
          CHANNELS 3 Zrotation Xrotation Yrotation
          JOINT lForeArm
          {
            OFFSET 28.1742 -1.7115 0.48768
            CHANNELS 3 Zrotation Xrotation Yrotation
            JOINT lHand
            {
              OFFSET 22.5879 0.773209 7.07136
              CHANNELS 3 Zrotation Xrotation Yrotation
              JOINT lThumb1
              {
                OFFSET 1.2192 -0.487915 3.41376
                CHANNELS 3 Zrotation Xrotation Yrotation
                JOINT lThumb2
                {
                  OFFSET 3.37035 -0.52449 3.41376
                  CHANNELS 3 Zrotation Xrotation Yrotation
                  End Site
                  {
                    OFFSET 1.78271 -1.18214 1.43049
                  }
                }
              }
              JOINT lIndex1
              {
                OFFSET 7.75947 0.938293 5.60832
                CHANNELS 3 Zrotation Xrotation Yrotation
                JOINT lIndex2
                {
                  OFFSET 2.54057 -0.884171 1.56538
                  CHANNELS 3 Zrotation Xrotation Yrotation
                  End Site
                  {
                    OFFSET 1.62519 -0.234802 1.16502
                  }
                }
              }
              JOINT lMid1
              {
                OFFSET 8.24714 1.18213 3.41376
                CHANNELS 3 Zrotation Xrotation Yrotation
                JOINT lMid2
                {
                  OFFSET 3.10165 -0.590103 1.0647
                  CHANNELS 3 Zrotation Xrotation Yrotation
                  End Site
                  {
                    OFFSET 2.48547 -0.328903 0.83742
                  }
                }
              }
              JOINT lRing1
              {
                OFFSET 8.82822 0.546677 1.51678
                CHANNELS 3 Zrotation Xrotation Yrotation
                JOINT lRing2
                {
                  OFFSET 2.60934 -0.819778 -0.0198488
                  CHANNELS 3 Zrotation Xrotation Yrotation
                  End Site
                  {
                    OFFSET 2.33842 -0.294052 0.168128
                  }
                }
              }
              JOINT lPinky1
              {
                OFFSET 8.27202 -0.0477905 -0.4584
                CHANNELS 3 Zrotation Xrotation Yrotation
                JOINT lPinky2
                {
                  OFFSET 1.82734 -0.647385 -0.700984
                  CHANNELS 3 Zrotation Xrotation Yrotation
                  End Site
                  {
                    OFFSET 1.69225 -0.51767 -0.607171
                  }
                }
              }
            }
          }
        }
      }
    }
  }
  JOINT rButtock
  {
    OFFSET -8.77824 4.35084 1.2192
    CHANNELS 3 Zrotation Xrotation Yrotation
    JOINT rThigh
    {
      OFFSET 0 -1.70687 -2.19456
      CHANNELS 3 Zrotation Xrotation Yrotation
      JOINT rShin
      {
        OFFSET 0 -36.8199 0.73152
        CHANNELS 3 Zrotation Xrotation Yrotation
        JOINT rFoot
        {
          OFFSET 0.73152 -45.1104 -5.12064
          CHANNELS 3 Zrotation Xrotation Yrotation
          End Site
          {
            OFFSET -1.1221 -3.69964 12.103
          }
        }
      }
    }
  }
  JOINT lButtock
  {
    OFFSET 8.77824 4.35084 1.2192
    CHANNELS 3 Zrotation Xrotation Yrotation
    JOINT lThigh
    {
      OFFSET 0 -1.70687 -2.19456
      CHANNELS 3 Zrotation Xrotation Yrotation
      JOINT lShin
      {
        OFFSET 0 -36.8199 0.73152
        CHANNELS 3 Zrotation Xrotation Yrotation
        JOINT lFoot
        {
          OFFSET -0.73152 -45.1104 -5.12064
          CHANNELS 3 Zrotation Xrotation Yrotation
          End Site
          {
            OFFSET 1.1221 -3.69964 12.103
          }
        }
      }
    }
  }
}
MOTION
Frames:	4
Frame Time:	0.00833333
-2.68445 80.4866 119.462 183.969 4.2554 -157.425 -11.6644 -19.8943 -7.53304 3.91425 13.5698 -1.86744 -3.63608 13.0896 0.662085 5.36989 -20.3299 2.78193 -0.0 0.0 0.0 -0.0 0.0 0.0 -2.49745e-13 -3.60058e-13 -7.31924e-14 83.4737 17.1788 -8.12657 -18.5073 -11.2427 35.168 -0.120869 -9.86359 -1.40024 3.80504e-09 -1.56796e-09 6.31981e-10 6.573e-09 -2.70372e-09 1.11874e-09 3.80504e-09 -1.56796e-09 6.31972e-10 7.73091 5.47488 0.417314 3.80504e-09 -1.56795e-09 6.31984e-10 2.90554 0.965183 0.102902 3.80505e-09 -1.56796e-09 6.31984e-10 10.2786 0.731801 0.0259123 3.80504e-09 -1.56795e-09 6.31991e-10 2.22167 -0.733487 -0.20892 -2.4983e-13 -3.6009e-13 -7.33422e-14 -62.2301 19.6116 1.25296 12.7372 -5.97914 -23.0465 0.00245777 1.4092 -0.19809 2.04359e-09 1.46841e-10 -7.07821e-10 3.52486e-09 2.49898e-10 -1.22592e-09 2.04357e-09 1.46839e-10 -7.07807e-10 -7.73091 5.47488 -0.417314 2.04358e-09 1.46838e-10 -7.07815e-10 -2.90554 0.965183 -0.102902 2.04358e-09 1.4684e-10 -7.07815e-10 -10.2786 0.731801 -0.0259123 2.04359e-09 1.4684e-10 -7.07821e-10 -2.22167 -0.733487 0.20892 -2.03217e-16 0.0 -3.88251e-19 -12.1944 -58.3308 -15.57 -0.72486 55.5173 1.66302 -3.88397 -19.7563 -9.34368 2.03217e-16 0.0 3.88251e-19 -2.1518 -31.2321 -12.3663 0.0842708 29.0813 -0.755284 2.30486 -16.6862 6.40502
-2.41091 80.454 119.176 184.205 4.1232 -157.555 -11.6466 -19.9161 -7.58998 3.98506 13.6301 -1.89343 -3.59646 13.0689 0.667592 5.35482 -20.3216 2.78858 -0.0 0.0 0.0 -0.0 0.0 0.0 -2.67124e-13 -3.72107e-13 -6.98728e-14 83.4525 17.063 -8.21174 -18.4666 -11.1972 35.0753 -0.120046 -9.8319 -1.39565 3.90932e-09 -1.28637e-09 6.57945e-10 6.7522e-09 -2.21566e-09 1.16419e-09 3.90932e-09 -1.28637e-09 6.57939e-10 7.73091 5.47488 0.417314 3.90932e-09 -1.28637e-09 6.57949e-10 2.90554 0.965183 0.102902 3.90933e-09 -1.28637e-09 6.57949e-10 10.2786 0.731801 0.0259123 3.90931e-09 -1.28636e-09 6.57955e-10 2.22167 -0.733487 -0.20892 -2.67226e-13 -3.72144e-13 -7.00219e-14 -61.9445 19.6837 1.22132 12.8022 -6.02743 -23.1738 0.00217072 1.33022 -0.186985 2.04637e-09 3.28205e-10 -4.65929e-10 3.53009e-09 5.63852e-10 -8.07702e-10 2.04636e-09 3.28203e-10 -4.65913e-10 -7.73091 5.47488 -0.417314 2.04637e-09 3.28202e-10 -4.65923e-10 -2.90554 0.965183 -0.102902 2.04636e-09 3.28202e-10 -4.65923e-10 -10.2786 0.731801 -0.0259123 2.04637e-09 3.28202e-10 -4.65929e-10 -2.22167 -0.733487 0.20892 -2.03217e-16 0.0 -3.88251e-19 -13.4063 -58.8829 -16.2207 -0.710972 55.3503 1.68213 -3.92623 -19.3629 -9.74274 2.03217e-16 0.0 3.88251e-19 -1.66847 -31.0155 -12.2701 0.0861362 29.2951 -0.780194 2.26031 -16.9987 6.37616
-2.12636 80.4127 118.833 184.517 4.0467 -157.679 -11.6171 -19.9247 -7.66486 4.042 13.6219 -1.92012 -3.56185 13.0807 0.619496 5.44113 -20.2428 2.71027 -0.0 0.0 0.0 -0.0 0.0 0.0 -2.02826e-13 -3.06625e-13 -3.3894e-14 83.4889 16.9255 -8.42199 -18.4383 -11.1656 35.0112 -0.119213 -9.79718 -1.39062 3.015e-09 -1.05999e-09 6.32745e-10 5.20744e-09 -1.8254e-09 1.11512e-09 3.015e-09 -1.05999e-09 6.32738e-10 7.73091 5.47488 0.417314 3.015e-09 -1.05999e-09 6.32746e-10 2.90554 0.965183 0.102902 3.01501e-09 -1.05999e-09 6.32746e-10 10.2786 0.731801 0.0259123 3.01499e-09 -1.05999e-09 6.32752e-10 2.22167 -0.733487 -0.20892 -2.02944e-13 -3.06651e-13 -3.40722e-14 -61.6723 19.874 1.24702 12.8841 -6.08858 -23.3344 0.00188112 1.23341 -0.173372 1.28492e-09 -1.62456e-10 -5.81832e-10 2.21407e-09 -2.84633e-10 -1.00724e-09 1.28491e-09 -1.62459e-10 -5.81816e-10 -7.73091 5.47488 -0.417314 1.28492e-09 -1.6246e-10 -5.81828e-10 -2.90554 0.965183 -0.102902 1.28491e-09 -1.6246e-10 -5.81826e-10 -10.2786 0.731801 -0.0259123 1.28492e-09 -1.6246e-10 -5.81831e-10 -2.22167 -0.733487 0.20892 -2.03217e-16 0.0 -3.88251e-19 -14.8202 -59.3039 -17.0956 -0.691768 55.03 1.69246 -3.9493 -18.8849 -10.1456 2.03217e-16 0.0 3.88251e-19 -1.18503 -30.7657 -12.1849 0.0877804 29.4635 -0.803393 2.20664 -17.2289 6.36131
-1.84461 80.3593 118.594 184.732 3.7326 -157.682 -11.5818 -19.9457 -7.74399 4.093 13.5688 -1.94413 -3.52858 13.1169 0.536877 5.58399 -20.1228 2.57558 -0.0 0.0 0.0 -0.0 0.0 0.0 -8.3625e-14 -1.8755e-13 2.56712e-14 83.5655 16.7732 -8.72227 -18.4177 -11.1426 34.9643 -0.11797 -9.74461 -1.38302 1.43131e-09 -8.25625e-10 5.72563e-10 2.47244e-09 -1.42281e-09 1.00138e-09 1.43131e-09 -8.25624e-10 5.72554e-10 7.73091 5.47488 0.417314 1.43131e-09 -8.25624e-10 5.72562e-10 2.90554 0.965183 0.102902 1.43132e-09 -8.25625e-10 5.72563e-10 10.2786 0.731801 0.0259123 1.4313e-09 -8.25623e-10 5.72568e-10 2.22167 -0.733487 -0.20892 -8.37571e-14 -1.87557e-13 2.54444e-14 -61.4113 20.1551 1.31398 12.9806 -6.16077 -23.5244 0.00161331 1.12226 -0.157744 -4.2078e-12 -1.08514e-09 -9.08116e-10 -1.40855e-11 -1.88036e-09 -1.56994e-09 -4.22207e-12 -1.08515e-09 -9.08101e-10 -7.73091 5.47488 -0.417314 -4.21096e-12 -1.08515e-09 -9.08117e-10 -2.90554 0.965183 -0.102902 -4.21735e-12 -1.08515e-09 -9.0811e-10 -10.2786 0.731801 -0.0259123 -4.20119e-12 -1.08515e-09 -9.08113e-10 -2.22167 -0.733487 0.20892 -2.03217e-16 0.0 -3.88251e-19 -16.3627 -59.6497 -18.092 -0.667428 54.5693 1.69339 -3.93883 -18.3476 -10.5087 2.03217e-16 0.0 3.88251e-19 -0.688917 -30.5095 -12.086 0.0892849 29.6018 -0.825677 2.14478 -17.4089 6.35111
